<svg xmlns="http://www.w3.org/2000/svg" viewBox="0 0 64 64" fill="none">
  <defs>
    <radialGradient id="aura" cx="32" cy="32" r="28" gradientUnits="userSpaceOnUse">
      <stop offset="0%" stop-color="#a855f7" stop-opacity="0.5"/>
      <stop offset="100%" stop-color="#a855f7" stop-opacity="0"/>
    </radialGradient>
    <filter id="boltGlow" x="-50%" y="-50%" width="200%" height="200%">
      <feGaussianBlur stdDeviation="2.2"/>
    </filter>
  </defs>
  <circle cx="32" cy="32" r="28" fill="url(#aura)"/>
  <path d="M36 8 L18 36 L30 36 L26 56 L46 28 L34 28 Z" fill="#22d3ee" filter="url(#boltGlow)" opacity="0.6"/>
  <path d="M36 8 L18 36 L30 36 L26 56 L46 28 L34 28 Z" fill="#ec4899" transform="translate(-2 0.5)" opacity="0.85"/>
  <path d="M36 8 L18 36 L30 36 L26 56 L46 28 L34 28 Z" fill="#22d3ee" transform="translate(2 -0.5)" opacity="0.85"/>
  <path d="M36 8 L18 36 L30 36 L26 56 L46 28 L34 28 Z" fill="white"/>
</svg>
